# xmcd
#
# Track frame offsets: 
#        150
#        9537
#        20329
#        32258
#        42845
#        53977
#        64891
#        77091
#        87975
#        98990
#        107954
#        118590
#
# Disc length: 1736 seconds
#
# Revision: 2
# Processed by: cddbd v1.5.1PL0 Copyright (c) Steve Scherf et al.
# Submitted via: ExactAudioCopy v0.95a3
#
DISCID=9206c60c
DTITLE=The Cascades - Essentials
DYEAR=1975
DGENRE=Pop
TTITLE0=Shy Girl
TTITLE1=The last leaf
TTITLE2=Angel on my shoulder
TTITLE3=Let me be
TTITLE4=Dreamin'
TTITLE5=Lucky Guy
TTITLE6=My first day alone
TTITLE7=Punch and Judy
TTITLE8=There's a reason
TTITLE9=I wanna be your lover
TTITLE10=Was I dreamin'
TTITLE11=Rhythm of the rain
EXTD=
EXTT0=
EXTT1=
EXTT2=
EXTT3=
EXTT4=
EXTT5=
EXTT6=
EXTT7=
EXTT8=
EXTT9=
EXTT10=
EXTT11=
PLAYORDER=
